<svg xmlns="http://www.w3.org/2000/svg" xmlns:xlink="http://www.w3.org/1999/xlink" width="500" zoomAndPan="magnify" viewBox="0 0 375 374.999991" height="500" preserveAspectRatio="xMidYMid meet" version="1.0"><defs><filter x="0%" y="0%" width="100%" height="100%" id="id1"><feColorMatrix values="0 0 0 0 1 0 0 0 0 1 0 0 0 0 1 0 0 0 1 0" color-interpolation-filters="sRGB"/></filter><g/><clipPath id="id2"><path d="M 110.882812 116.152344 L 263.882812 116.152344 L 263.882812 269.152344 L 110.882812 269.152344 Z M 110.882812 116.152344 " clip-rule="nonzero"/></clipPath><clipPath id="id3"><path d="M 113.605469 118.875 L 261.355469 118.875 L 261.355469 266.625 L 113.605469 266.625 Z M 113.605469 118.875 " clip-rule="nonzero"/></clipPath><mask id="id4"><g filter="url(#id1)"><rect x="-37.5" width="450" fill="#000000" y="-37.499999" height="449.999989" fill-opacity="0.8471"/></g></mask><clipPath id="id5"><rect x="0" width="197" y="0" height="20"/></clipPath></defs><rect x="-37.5" width="450" fill="#ffffff" y="-37.499999" height="449.999989" fill-opacity="1"/><rect x="-37.5" width="450" fill="#ffffff" y="-37.499999" height="449.999989" fill-opacity="1"/><rect x="-37.5" width="450" fill="#000000" y="-37.499999" height="449.999989" fill-opacity="1"/><path fill="#ffffff" d="M 204.320312 193.128906 C 204.777344 193.585938 205.523438 193.5625 205.953125 193.074219 L 225.339844 171.398438 C 225.699219 170.992188 225.679688 170.371094 225.292969 169.984375 C 224.890625 169.582031 224.234375 169.582031 223.832031 169.984375 L 209.535156 184.28125 C 209.101562 184.714844 208.394531 184.757812 207.953125 184.339844 C 207.492188 183.90625 207.484375 183.183594 207.929688 182.742188 L 222.257812 168.414062 C 222.660156 168.007812 222.660156 167.355469 222.257812 166.949219 L 222.117188 166.808594 C 221.710938 166.402344 221.054688 166.402344 220.652344 166.808594 L 206.355469 181.105469 C 205.925781 181.535156 205.21875 181.578125 204.773438 181.160156 C 204.316406 180.730469 204.304688 180.007812 204.75 179.5625 L 219.078125 165.234375 C 219.484375 164.832031 219.484375 164.175781 219.078125 163.773438 L 218.9375 163.628906 C 218.53125 163.226562 217.878906 163.226562 217.472656 163.628906 L 203.175781 177.925781 C 202.746094 178.355469 202.039062 178.402344 201.597656 177.984375 C 201.136719 177.550781 201.128906 176.828125 201.570312 176.386719 L 215.902344 162.058594 C 216.304688 161.652344 216.304688 160.996094 215.902344 160.59375 C 215.515625 160.207031 214.894531 160.1875 214.488281 160.546875 L 192.8125 179.9375 C 192.324219 180.363281 192.300781 181.109375 192.757812 181.566406 C 194.890625 183.699219 194.832031 187.175781 192.628906 189.238281 L 162.285156 217.601562 C 160.550781 219.226562 160.40625 221.984375 162.054688 223.703125 C 163.746094 225.464844 166.5625 225.441406 168.222656 223.667969 L 196.648438 193.257812 C 198.710938 191.054688 202.1875 190.996094 204.320312 193.128906 " fill-opacity="1" fill-rule="nonzero"/><path fill="#ffffff" d="M 210.195312 217.664062 L 190.792969 199.523438 L 186.207031 204.425781 L 204.195312 223.667969 C 205.835938 225.421875 208.601562 225.464844 210.300781 223.769531 C 211.996094 222.070312 211.949219 219.304688 210.195312 217.664062 Z M 158.574219 166.09375 C 171.246094 167.832031 174.351562 181.867188 174.351562 181.867188 Z M 171.828125 168.714844 C 165.347656 162.234375 156.378906 160.691406 151.800781 165.269531 C 147.222656 169.847656 148.765625 178.816406 155.246094 185.296875 C 160.796875 190.847656 168.164062 192.773438 173.042969 190.34375 L 180.023438 197.808594 L 184.492188 193.632812 L 176.875 186.511719 C 179.304688 181.632812 177.375 174.265625 171.828125 168.714844 " fill-opacity="1" fill-rule="nonzero"/><g clip-path="url(#id2)"><path fill="#ffffff" d="M 187.382812 259.53125 C 150.445312 259.53125 120.503906 229.589844 120.503906 192.652344 C 120.503906 155.714844 150.445312 125.769531 187.382812 125.769531 C 224.320312 125.769531 254.261719 155.714844 254.261719 192.652344 C 254.261719 229.589844 224.320312 259.53125 187.382812 259.53125 Z M 187.382812 116.152344 C 145.132812 116.152344 110.882812 150.402344 110.882812 192.652344 C 110.882812 234.902344 145.132812 269.152344 187.382812 269.152344 C 229.632812 269.152344 263.882812 234.902344 263.882812 192.652344 C 263.882812 150.402344 229.632812 116.152344 187.382812 116.152344 " fill-opacity="1" fill-rule="nonzero"/></g><path fill="#ffffff" d="M 206.019531 133.695312 C 227.78125 142.535156 243.128906 163.882812 243.128906 188.820312 C 243.128906 221.671875 216.5 248.304688 183.648438 248.304688 C 161.722656 248.304688 142.574219 236.441406 132.257812 218.785156 C 142.261719 238.761719 162.917969 252.476562 186.777344 252.476562 C 220.4375 252.476562 247.722656 225.191406 247.722656 191.535156 C 247.722656 164.601562 230.25 141.75 206.019531 133.695312 " fill-opacity="1" fill-rule="nonzero"/><g clip-path="url(#id3)"><path fill="#000000" d="M 256.785156 212.445312 C 254.910156 218.824219 252.050781 224.875 248.503906 230.445312 C 245.570312 234.980469 242.242188 239.242188 238.496094 243.121094 C 238.011719 243.648438 237.472656 244.121094 236.957031 244.621094 C 236.433594 245.113281 235.925781 245.621094 235.394531 246.097656 L 233.769531 247.511719 L 232.960938 248.21875 L 232.117188 248.886719 L 230.4375 250.230469 C 229.867188 250.664062 229.28125 251.074219 228.703125 251.503906 C 227.5625 252.375 226.351562 253.140625 225.164062 253.949219 C 224.992188 254.066406 224.8125 254.183594 224.625 254.3125 C 224.429688 254.425781 224.230469 254.546875 224.019531 254.675781 C 223.601562 254.925781 223.148438 255.195312 222.671875 255.480469 C 221.722656 256.078125 220.597656 256.636719 219.386719 257.28125 C 219.082031 257.4375 218.777344 257.609375 218.453125 257.765625 C 218.132812 257.917969 217.800781 258.070312 217.464844 258.226562 C 216.789062 258.535156 216.09375 258.859375 215.375 259.191406 C 213.898438 259.769531 212.359375 260.460938 210.679688 261 C 204.050781 263.402344 195.78125 264.886719 187.480469 264.921875 C 179.179688 264.886719 170.910156 263.402344 164.28125 261 C 162.601562 260.460938 161.0625 259.769531 159.585938 259.191406 C 158.867188 258.859375 158.167969 258.535156 157.496094 258.226562 C 157.160156 258.070312 156.828125 257.917969 156.503906 257.765625 C 156.183594 257.613281 155.878906 257.4375 155.574219 257.28125 C 154.359375 256.640625 153.238281 256.078125 152.289062 255.480469 C 151.808594 255.195312 151.359375 254.925781 150.941406 254.675781 C 150.730469 254.550781 150.53125 254.429688 150.335938 254.3125 C 150.148438 254.1875 149.96875 254.066406 149.796875 253.949219 C 145.289062 250.996094 141.050781 247.636719 137.203125 243.867188 C 133.140625 239.8125 129.589844 235.265625 126.457031 230.445312 C 122.910156 224.875 120.046875 218.824219 118.175781 212.445312 C 116.226562 206.089844 115.324219 199.421875 115.265625 192.75 C 115.324219 186.078125 116.226562 179.40625 118.175781 173.050781 C 120.046875 166.675781 122.910156 160.625 126.457031 155.050781 C 129.386719 150.515625 132.71875 146.253906 136.464844 142.378906 C 136.949219 141.847656 137.488281 141.375 138 140.875 C 138.523438 140.386719 139.03125 139.878906 139.566406 139.398438 L 141.1875 137.988281 L 142 137.28125 L 142.84375 136.613281 L 144.523438 135.269531 C 145.09375 134.835938 145.679688 134.421875 146.257812 133.996094 C 147.398438 133.125 148.609375 132.355469 149.796875 131.550781 C 149.96875 131.433594 150.148438 131.3125 150.335938 131.1875 C 150.527344 131.070312 150.730469 130.949219 150.941406 130.824219 C 151.359375 130.574219 151.808594 130.304688 152.289062 130.015625 C 153.238281 129.421875 154.359375 128.859375 155.570312 128.214844 C 155.875 128.058594 156.183594 127.886719 156.503906 127.734375 C 156.828125 127.582031 157.160156 127.429688 157.496094 127.273438 C 158.167969 126.960938 158.867188 126.640625 159.585938 126.304688 C 161.0625 125.730469 162.601562 125.035156 164.28125 124.5 C 170.910156 122.097656 179.179688 120.609375 187.480469 120.574219 C 195.78125 120.609375 204.050781 122.097656 210.679688 124.5 C 212.359375 125.035156 213.894531 125.730469 215.375 126.304688 C 216.09375 126.640625 216.789062 126.960938 217.464844 127.273438 C 217.800781 127.429688 218.132812 127.582031 218.453125 127.730469 C 218.777344 127.886719 219.082031 128.058594 219.386719 128.214844 C 220.597656 128.859375 221.722656 129.421875 222.667969 130.015625 C 223.148438 130.304688 223.601562 130.574219 224.019531 130.824219 C 224.230469 130.949219 224.429688 131.070312 224.625 131.1875 C 224.8125 131.3125 224.992188 131.433594 225.164062 131.546875 C 229.671875 134.503906 233.90625 137.859375 237.757812 141.628906 C 241.820312 145.6875 245.371094 150.230469 248.5 155.050781 C 252.050781 160.625 254.910156 166.675781 256.785156 173.050781 C 258.734375 179.40625 259.636719 186.078125 259.695312 192.75 C 259.636719 199.421875 258.734375 206.089844 256.785156 212.445312 Z M 261.355469 192.699219 L 261.351562 192.695312 C 261.292969 185.882812 260.375 179.066406 258.390625 172.566406 C 256.484375 166.050781 253.558594 159.859375 249.914062 154.179688 L 248.164062 151.542969 C 248.164062 151.542969 247.65625 150.835938 246.898438 149.773438 C 246.167969 148.691406 245.046875 147.355469 243.980469 145.980469 C 242.828125 144.675781 241.722656 143.332031 240.792969 142.414062 C 239.890625 141.46875 239.289062 140.84375 239.289062 140.84375 C 239.289062 140.84375 239.140625 140.6875 238.863281 140.421875 C 238.589844 140.160156 238.199219 139.78125 237.730469 139.328125 C 236.816406 138.394531 235.488281 137.273438 234.183594 136.121094 C 233.515625 135.566406 232.828125 135.03125 232.191406 134.523438 C 231.875 134.269531 231.566406 134.023438 231.273438 133.789062 C 230.96875 133.570312 230.683594 133.363281 230.417969 133.175781 C 229.359375 132.410156 228.65625 131.902344 228.65625 131.902344 C 228.65625 131.902344 228.5 131.777344 228.253906 131.617188 C 228.007812 131.453125 227.679688 131.230469 227.351562 131.011719 C 226.695312 130.574219 226.039062 130.132812 226.039062 130.132812 C 225.863281 130.015625 225.679688 129.890625 225.488281 129.761719 C 225.289062 129.640625 225.085938 129.515625 224.871094 129.386719 C 224.441406 129.128906 223.980469 128.855469 223.492188 128.558594 C 222.523438 127.949219 221.375 127.371094 220.136719 126.710938 C 219.824219 126.550781 219.511719 126.375 219.179688 126.214844 C 218.847656 126.0625 218.511719 125.902344 218.167969 125.742188 C 217.480469 125.421875 216.765625 125.09375 216.027344 124.75 C 214.515625 124.15625 212.941406 123.449219 211.222656 122.898438 C 204.441406 120.433594 195.972656 118.90625 187.480469 118.875 C 178.988281 118.90625 170.519531 120.433594 163.734375 122.898438 C 162.015625 123.449219 160.441406 124.160156 158.929688 124.753906 C 158.195312 125.09375 157.480469 125.421875 156.792969 125.742188 C 156.449219 125.902344 156.109375 126.0625 155.777344 126.214844 C 155.449219 126.375 155.136719 126.550781 154.824219 126.710938 C 153.585938 127.371094 152.4375 127.949219 151.46875 128.558594 C 150.976562 128.855469 150.515625 129.132812 150.089844 129.386719 C 149.875 129.515625 149.667969 129.640625 149.472656 129.761719 C 149.28125 129.890625 149.097656 130.015625 148.921875 130.132812 C 148.921875 130.132812 148.265625 130.574219 147.609375 131.011719 C 147.28125 131.230469 146.953125 131.453125 146.707031 131.617188 C 146.457031 131.777344 146.304688 131.902344 146.304688 131.902344 C 146.304688 131.902344 145.597656 132.410156 144.542969 133.175781 C 144.277344 133.363281 143.988281 133.570312 143.6875 133.789062 C 143.394531 134.023438 143.085938 134.269531 142.765625 134.523438 C 142.132812 135.03125 141.445312 135.566406 140.773438 136.121094 C 139.472656 137.273438 138.144531 138.394531 137.230469 139.328125 C 136.757812 139.78125 136.367188 140.160156 136.09375 140.421875 C 135.820312 140.6875 135.667969 140.84375 135.667969 140.84375 C 135.667969 140.84375 135.066406 141.46875 134.164062 142.414062 C 133.234375 143.332031 132.132812 144.675781 130.980469 145.980469 C 129.910156 147.355469 128.792969 148.691406 128.0625 149.773438 C 127.300781 150.835938 126.796875 151.546875 126.796875 151.546875 L 125.042969 154.179688 C 121.398438 159.859375 118.476562 166.050781 116.566406 172.566406 C 114.582031 179.066406 113.667969 185.882812 113.605469 192.695312 L 113.605469 192.804688 C 113.667969 199.617188 114.582031 206.433594 116.566406 212.929688 C 118.476562 219.449219 121.398438 225.636719 125.042969 231.320312 L 126.796875 233.953125 C 126.796875 233.953125 127.300781 234.660156 128.0625 235.722656 C 128.792969 236.808594 129.910156 238.144531 130.980469 239.515625 C 132.132812 240.820312 133.234375 242.167969 134.164062 243.085938 C 135.066406 244.027344 135.667969 244.65625 135.667969 244.65625 C 135.667969 244.65625 135.820312 244.8125 136.09375 245.074219 C 136.367188 245.339844 136.757812 245.71875 137.230469 246.171875 C 138.144531 247.101562 139.472656 248.226562 140.773438 249.378906 C 141.445312 249.933594 142.132812 250.464844 142.765625 250.976562 C 143.085938 251.230469 143.394531 251.476562 143.6875 251.707031 C 143.988281 251.925781 144.277344 252.132812 144.542969 252.324219 C 145.597656 253.089844 146.304688 253.597656 146.304688 253.597656 C 146.304688 253.597656 146.457031 253.722656 146.707031 253.882812 C 146.953125 254.046875 147.28125 254.265625 147.609375 254.488281 C 148.265625 254.925781 148.921875 255.363281 148.921875 255.363281 C 149.097656 255.484375 149.28125 255.609375 149.472656 255.738281 C 149.667969 255.855469 149.875 255.980469 150.089844 256.109375 C 150.515625 256.367188 150.976562 256.644531 151.46875 256.9375 C 152.4375 257.550781 153.585938 258.128906 154.824219 258.789062 C 155.136719 258.949219 155.449219 259.125 155.777344 259.28125 C 156.109375 259.4375 156.449219 259.59375 156.792969 259.753906 C 157.480469 260.074219 158.195312 260.40625 158.933594 260.746094 C 160.441406 261.339844 162.015625 262.046875 163.734375 262.601562 C 170.519531 265.066406 178.988281 266.589844 187.480469 266.625 C 195.972656 266.589844 204.441406 265.066406 211.226562 262.601562 C 212.941406 262.046875 214.519531 261.339844 216.027344 260.746094 C 216.765625 260.40625 217.480469 260.074219 218.167969 259.753906 C 218.511719 259.59375 218.851562 259.4375 219.179688 259.28125 C 219.511719 259.125 219.824219 258.949219 220.136719 258.789062 C 221.375 258.128906 222.523438 257.550781 223.492188 256.9375 C 223.980469 256.644531 224.441406 256.367188 224.871094 256.109375 C 225.085938 255.980469 225.292969 255.855469 225.488281 255.738281 C 225.679688 255.605469 225.863281 255.484375 226.039062 255.363281 C 226.039062 255.363281 226.695312 254.925781 227.351562 254.488281 C 227.679688 254.265625 228.007812 254.046875 228.253906 253.882812 C 228.5 253.722656 228.65625 253.597656 228.65625 253.597656 C 228.65625 253.597656 229.359375 253.089844 230.417969 252.324219 C 230.683594 252.132812 230.96875 251.925781 231.273438 251.707031 C 231.566406 251.476562 231.875 251.230469 232.191406 250.976562 C 232.828125 250.464844 233.515625 249.933594 234.183594 249.378906 C 235.488281 248.226562 236.816406 247.101562 237.730469 246.171875 C 238.199219 245.71875 238.589844 245.339844 238.863281 245.074219 C 239.140625 244.8125 239.289062 244.65625 239.289062 244.65625 C 239.289062 244.65625 239.890625 244.027344 240.792969 243.085938 C 241.722656 242.167969 242.828125 240.820312 243.980469 239.515625 C 245.046875 238.144531 246.167969 236.808594 246.898438 235.722656 C 247.65625 234.660156 248.164062 233.953125 248.164062 233.953125 L 249.914062 231.320312 C 253.558594 225.636719 256.484375 219.449219 258.390625 212.929688 C 260.375 206.429688 261.292969 199.613281 261.351562 192.804688 L 261.355469 192.796875 L 261.355469 192.699219 " fill-opacity="1" fill-rule="nonzero"/></g><g fill="#ffffff" fill-opacity="1"><g transform="translate(91.412493, 177.67309)"><g><path d="M -16.671875 -6.019531 L -13.488281 -4.996094 L -13.0625 -6.324219 L -2.566406 -2.953125 L -2.992188 -1.625 L 0.195312 -0.601562 L 2.703125 -8.421875 L -0.480469 -9.445312 L -0.960938 -7.949219 L -4.605469 -9.117188 L -3.132812 -13.703125 L 0.511719 -12.53125 L 0.0546875 -11.109375 L 3.238281 -10.085938 L 5.757812 -17.925781 L 2.574219 -18.949219 L 2.125 -17.550781 L -8.371094 -20.921875 L -7.921875 -22.320312 L -11.105469 -23.34375 L -13.625 -15.503906 L -10.441406 -14.480469 L -9.984375 -15.902344 L -6.339844 -14.734375 L -7.8125 -10.148438 L -11.457031 -11.320312 L -10.976562 -12.816406 L -14.160156 -13.839844 Z M -16.671875 -6.019531 "/></g></g></g><g fill="#ffffff" fill-opacity="1"><g transform="translate(98.569419, 156.793492)"><g><path d="M -15.039062 -9.378906 L -12.140625 -7.710938 L -11.34375 -9.097656 L -1.808594 -3.613281 L -2.605469 -2.230469 L 0.316406 -0.550781 L 7.933594 -13.796875 L 2.96875 -16.652344 L 0.78125 -12.851562 L 2.828125 -11.675781 L 0.804688 -8.160156 L -2.777344 -10.21875 L -0.375 -14.394531 L -3.296875 -16.074219 L -5.699219 -11.902344 L -8.730469 -13.644531 L -6.707031 -17.160156 L -4.753906 -16.035156 L -2.566406 -19.835938 L -7.421875 -22.628906 Z M -15.039062 -9.378906 "/></g></g></g><g fill="#ffffff" fill-opacity="1"><g transform="translate(108.442895, 140.252076)"><g><path d="M -12.976562 -12.074219 L -10.449219 -9.882812 L -9.535156 -10.9375 L -1.222656 -3.738281 L -2.132812 -2.683594 L 0.414062 -0.480469 L 9.703125 -11.207031 L 4.722656 -15.519531 L 1.933594 -12.300781 L 4.367188 -10.195312 L 2.230469 -7.722656 L -6.085938 -14.921875 L -5.207031 -15.9375 L -7.738281 -18.128906 Z M -12.976562 -12.074219 "/></g></g></g><g fill="#ffffff" fill-opacity="1"><g transform="translate(120.552075, 126.657198)"><g><path d="M -10.515625 -14.269531 L -8.4375 -11.648438 L -7.34375 -12.515625 L -0.507812 -3.902344 L -1.597656 -3.035156 L 0.496094 -0.394531 L 11.613281 -9.214844 L 7.515625 -14.378906 L 4.183594 -11.730469 L 6.183594 -9.210938 L 3.621094 -7.175781 L -3.214844 -15.792969 L -2.164062 -16.628906 L -4.242188 -19.246094 Z M -10.515625 -14.269531 "/></g></g></g><g fill="#ffffff" fill-opacity="1"><g transform="translate(134.826337, 115.463135)"><g><path d="M 8.640625 -3.859375 C 13.75 -6.445312 15.019531 -11.007812 12.433594 -16.121094 C 9.859375 -21.207031 5.601562 -23.226562 0.0585938 -20.421875 C -4.621094 -18.054688 -6.171875 -13.039062 -3.699219 -8.152344 C -0.839844 -2.5 3.914062 -1.46875 8.640625 -3.859375 Z M 6.84375 -7.410156 C 5.398438 -6.679688 3.382812 -8.019531 1.886719 -10.980469 C 0.464844 -13.785156 0.410156 -16.253906 1.800781 -16.929688 C 3.539062 -17.8125 5.398438 -15.996094 6.78125 -13.257812 C 8.199219 -10.457031 8.269531 -8.132812 6.84375 -7.410156 Z M 6.84375 -7.410156 "/></g></g></g><g fill="#ffffff" fill-opacity="1"><g transform="translate(154.430634, 106.348422)"><g/></g></g><g fill="#ffffff" fill-opacity="1"><g transform="translate(163.182049, 103.27376)"><g><path d="M -2.3125 -17.566406 L -1.8125 -14.308594 L -0.410156 -14.527344 L 0.539062 -8.339844 C 1.414062 -2.652344 4.527344 -0.414062 9.609375 -1.039062 C 14.316406 -1.765625 16.386719 -4.824219 15.472656 -10.761719 L 14.539062 -16.847656 L 15.890625 -17.054688 L 15.394531 -20.289062 L 7.980469 -19.148438 L 8.488281 -15.84375 L 9.839844 -16.050781 L 10.65625 -10.738281 C 11.320312 -6.429688 10.410156 -5.675781 8.882812 -5.441406 C 7.277344 -5.195312 6.246094 -5.90625 5.625 -9.941406 L 4.796875 -15.351562 L 6.148438 -15.558594 L 5.652344 -18.789062 Z M -2.3125 -17.566406 "/></g></g></g><g fill="#ffffff" fill-opacity="1"><g transform="translate(184.194393, 100.224694)"><g><path d="M 21.070312 -12.90625 L 21.3125 -16.167969 L 13.707031 -16.738281 L 13.460938 -13.476562 L 15.179688 -13.347656 L 14.730469 -7.332031 L 9.234375 -17.070312 L 1.980469 -17.617188 L 1.738281 -14.355469 L 3.203125 -14.246094 L 2.367188 -3.101562 L 0.875 -3.210938 L 0.632812 0.046875 L 8.390625 0.628906 L 8.632812 -2.632812 L 6.6875 -2.777344 L 7.164062 -9.144531 L 12.886719 0.964844 L 18.320312 1.375 L 19.402344 -13.03125 Z M 21.070312 -12.90625 "/></g></g></g><g fill="#ffffff" fill-opacity="1"><g transform="translate(207.463359, 102.727715)"><g><path d="M 5.140625 -16.964844 L 4.285156 -13.730469 L 5.828125 -13.320312 L 3.019531 -2.6875 L 1.472656 -3.097656 L 0.613281 0.160156 L 8.746094 2.3125 L 9.609375 -0.945312 L 8.089844 -1.347656 L 10.902344 -11.980469 L 12.421875 -11.578125 L 13.273438 -14.8125 Z M 5.140625 -16.964844 "/></g></g></g><g fill="#ffffff" fill-opacity="1"><g transform="translate(219.604826, 105.740081)"><g><path d="M 12.046875 -0.640625 C 12.300781 -1.304688 12.472656 -2.453125 12.632812 -3.75 L 13.082031 -9.804688 L 14.324219 -9.226562 L 15.714844 -12.210938 L 7.265625 -16.15625 L 5.871094 -13.171875 L 7.136719 -12.582031 L 7.117188 3.324219 L 11.34375 5.296875 L 22.957031 -5.191406 L 24.082031 -4.667969 L 25.476562 -7.652344 L 18.953125 -10.699219 L 17.558594 -7.714844 L 18.777344 -7.144531 L 14.347656 -3.117188 C 13.355469 -2.183594 12.507812 -1.207031 12.160156 -0.585938 Z M 12.046875 -0.640625 "/></g></g></g><g fill="#ffffff" fill-opacity="1"><g transform="translate(239.523673, 115.52852)"><g><path d="M 11.207031 -13.734375 L 9.183594 -11.066406 L 10.457031 -10.105469 L 3.8125 -1.339844 L 2.542969 -2.304688 L 0.503906 0.382812 L 12.683594 9.613281 L 16.144531 5.050781 L 12.648438 2.402344 L 11.226562 4.28125 L 7.992188 1.832031 L 10.488281 -1.460938 L 14.328125 1.445312 L 16.363281 -1.238281 L 12.527344 -4.148438 L 14.636719 -6.933594 L 17.871094 -4.484375 L 16.507812 -2.6875 L 20 -0.0390625 L 23.382812 -4.503906 Z M 11.207031 -13.734375 "/></g></g></g><g fill="#ffffff" fill-opacity="1"><g transform="translate(254.724745, 127.256622)"><g><path d="M 13.792969 -11.132812 L 11.285156 -8.957031 L 12.214844 -7.886719 L 3.871094 -0.644531 L 2.941406 -1.714844 L 0.414062 0.476562 L 5.78125 6.660156 L 8.308594 4.46875 L 7.292969 3.300781 L 10.261719 0.722656 C 11.738281 2.425781 11.5 3.003906 9.757812 4.515625 C 7.519531 6.460938 7.246094 8.8125 9.421875 11.316406 C 11.265625 13.441406 13.320312 12.832031 14.910156 11.453125 L 15.960938 10.539062 L 14.851562 9.257812 L 14.21875 9.804688 C 13.835938 10.140625 13.472656 10.183594 13.222656 9.898438 C 12.925781 9.554688 13.304688 9.023438 14.125 8.308594 C 15.503906 7.113281 15.621094 4.929688 14.667969 3.441406 C 16.277344 4.832031 18.359375 5.105469 19.851562 3.808594 C 22.03125 1.914062 23.046875 -0.472656 19.191406 -4.914062 Z M 15.65625 -3.960938 L 16.488281 -3.003906 C 17.453125 -1.894531 17.425781 -0.761719 16.296875 0.214844 C 15.28125 1.097656 14.113281 0.835938 13.152344 -0.273438 L 12.402344 -1.136719 Z M 15.65625 -3.960938 "/></g></g></g><g fill="#ffffff" fill-opacity="1"><g transform="translate(268.435666, 143.529931)"><g><path d="M 0.304688 0.554688 L 2.433594 4.445312 L 4.277344 3.753906 C 3.742188 5.148438 3.546875 7.273438 4.777344 9.519531 C 6.222656 12.164062 9.246094 14.730469 12.710938 12.832031 C 17.9375 9.972656 12.585938 1.460938 14.875 0.210938 C 15.652344 -0.214844 16.542969 0.453125 16.894531 1.097656 C 17.746094 2.65625 17.515625 4.453125 15.871094 5.355469 L 18.074219 9.378906 L 23.652344 6.324219 L 21.5625 2.5 L 19.574219 3.300781 C 20.753906 1.5 20.320312 -0.71875 19.296875 -2.585938 C 18.105469 -4.765625 14.914062 -7.0625 11.621094 -5.261719 C 5.953125 -2.160156 11.359375 5.976562 9.625 6.925781 C 8.691406 7.4375 7.90625 6.421875 7.480469 5.644531 C 7.011719 4.683594 6.300781 2.648438 8.167969 1.625 L 5.90625 -2.507812 Z M 0.304688 0.554688 "/></g></g></g><g fill="#ffffff" fill-opacity="1"><g transform="translate(278.038381, 161.807154)"><g><path d="M 17.125 -4.574219 L 13.925781 -3.59375 L 14.394531 -2.070312 L 3.875 1.148438 L 3.410156 -0.378906 L 0.183594 0.605469 L 4.652344 15.21875 L 10.128906 13.546875 L 8.847656 9.351562 L 6.59375 10.042969 L 5.410156 6.164062 L 9.359375 4.957031 L 10.765625 9.5625 L 13.992188 8.574219 L 12.582031 3.96875 L 15.925781 2.949219 L 17.113281 6.824219 L 14.957031 7.484375 L 16.238281 11.679688 L 21.59375 10.039062 Z M 17.125 -4.574219 "/></g></g></g><g mask="url(#id4)"><g transform="matrix(1, 0, 0, 1, 89, 276)"><g clip-path="url(#id5)"><g fill="#ffffff" fill-opacity="1"><g transform="translate(0.791808, 16.034805)"><g><path d="M 8.46875 0 L 6.453125 -3.359375 C 6.347656 -3.347656 6.179688 -3.34375 5.953125 -3.34375 L 3.328125 -3.34375 L 3.328125 0 L 1.453125 0 L 1.453125 -11.0625 L 5.953125 -11.0625 C 7.359375 -11.0625 8.453125 -10.734375 9.234375 -10.078125 C 10.015625 -9.421875 10.40625 -8.492188 10.40625 -7.296875 C 10.40625 -6.410156 10.207031 -5.660156 9.8125 -5.046875 C 9.414062 -4.429688 8.847656 -3.984375 8.109375 -3.703125 L 10.59375 0 Z M 3.328125 -5.015625 L 5.953125 -5.015625 C 7.742188 -5.015625 8.640625 -5.753906 8.640625 -7.234375 C 8.640625 -8.671875 7.742188 -9.390625 5.953125 -9.390625 L 3.328125 -9.390625 Z M 3.328125 -5.015625 "/></g></g></g><g fill="#ffffff" fill-opacity="1"><g transform="translate(13.803823, 16.034805)"><g><path d="M 9.359375 -9.390625 L 3.328125 -9.390625 L 3.328125 -6.40625 L 8.734375 -6.40625 L 8.734375 -4.734375 L 3.328125 -4.734375 L 3.328125 -1.671875 L 9.546875 -1.671875 L 9.546875 0 L 1.453125 0 L 1.453125 -11.0625 L 9.359375 -11.0625 Z M 9.359375 -9.390625 "/></g></g></g><g fill="#ffffff" fill-opacity="1"><g transform="translate(25.756662, 16.034805)"><g><path d="M 5.09375 -11.140625 C 6.519531 -11.140625 7.8125 -10.765625 8.96875 -10.015625 L 8.1875 -8.359375 C 7.0625 -9.046875 5.984375 -9.390625 4.953125 -9.390625 C 4.390625 -9.390625 3.945312 -9.289062 3.625 -9.09375 C 3.300781 -8.894531 3.140625 -8.609375 3.140625 -8.234375 C 3.140625 -7.867188 3.285156 -7.554688 3.578125 -7.296875 C 3.878906 -7.035156 4.25 -6.84375 4.6875 -6.71875 C 5.132812 -6.601562 5.613281 -6.453125 6.125 -6.265625 C 6.644531 -6.085938 7.125 -5.894531 7.5625 -5.6875 C 8.007812 -5.476562 8.378906 -5.15625 8.671875 -4.71875 C 8.960938 -4.28125 9.109375 -3.75 9.109375 -3.125 C 9.109375 -2.15625 8.71875 -1.378906 7.9375 -0.796875 C 7.164062 -0.222656 6.164062 0.0625 4.9375 0.0625 C 4.09375 0.0625 3.273438 -0.09375 2.484375 -0.40625 C 1.691406 -0.726562 1 -1.15625 0.40625 -1.6875 L 1.21875 -3.3125 C 1.78125 -2.789062 2.394531 -2.390625 3.0625 -2.109375 C 3.726562 -1.828125 4.363281 -1.6875 4.96875 -1.6875 C 5.625 -1.6875 6.128906 -1.804688 6.484375 -2.046875 C 6.847656 -2.285156 7.03125 -2.613281 7.03125 -3.03125 C 7.03125 -3.414062 6.882812 -3.734375 6.59375 -3.984375 C 6.300781 -4.242188 5.929688 -4.4375 5.484375 -4.5625 C 5.046875 -4.6875 4.566406 -4.832031 4.046875 -5 C 3.523438 -5.175781 3.039062 -5.359375 2.59375 -5.546875 C 2.15625 -5.742188 1.789062 -6.054688 1.5 -6.484375 C 1.207031 -6.921875 1.0625 -7.445312 1.0625 -8.0625 C 1.0625 -9 1.425781 -9.742188 2.15625 -10.296875 C 2.894531 -10.859375 3.875 -11.140625 5.09375 -11.140625 Z M 5.09375 -11.140625 "/></g></g></g><g fill="#ffffff" fill-opacity="1"><g transform="translate(37.171998, 16.034805)"><g><path d="M 9.015625 -9.390625 L 5.5 -9.390625 L 5.5 0 L 3.640625 0 L 3.640625 -9.390625 L 0.140625 -9.390625 L 0.140625 -11.0625 L 9.015625 -11.0625 Z M 9.015625 -9.390625 "/></g></g></g><g fill="#ffffff" fill-opacity="1"><g transform="translate(47.907573, 16.034805)"><g><path d="M 8.609375 -2.5 L 3.015625 -2.5 L 1.953125 0 L 0.015625 0 L 4.90625 -11.0625 L 6.8125 -11.0625 L 11.65625 0 L 9.65625 0 Z M 7.890625 -4.15625 L 5.796875 -9.078125 L 3.71875 -4.15625 Z M 7.890625 -4.15625 "/></g></g></g><g fill="#ffffff" fill-opacity="1"><g transform="translate(61.156717, 16.034805)"><g><path d="M 10.859375 -11.0625 L 10.859375 -4.578125 C 10.859375 -3.140625 10.429688 -2.003906 9.578125 -1.171875 C 8.722656 -0.335938 7.546875 0.078125 6.046875 0.078125 C 4.554688 0.078125 3.378906 -0.335938 2.515625 -1.171875 C 1.660156 -2.003906 1.234375 -3.140625 1.234375 -4.578125 L 1.234375 -11.0625 L 3.09375 -11.0625 L 3.09375 -4.578125 C 3.09375 -3.648438 3.359375 -2.921875 3.890625 -2.390625 C 4.429688 -1.859375 5.160156 -1.59375 6.078125 -1.59375 C 6.984375 -1.59375 7.695312 -1.851562 8.21875 -2.375 C 8.738281 -2.90625 9 -3.640625 9 -4.578125 L 9 -11.0625 Z M 10.859375 -11.0625 "/></g></g></g><g fill="#ffffff" fill-opacity="1"><g transform="translate(74.816897, 16.034805)"><g><path d="M 8.46875 0 L 6.453125 -3.359375 C 6.347656 -3.347656 6.179688 -3.34375 5.953125 -3.34375 L 3.328125 -3.34375 L 3.328125 0 L 1.453125 0 L 1.453125 -11.0625 L 5.953125 -11.0625 C 7.359375 -11.0625 8.453125 -10.734375 9.234375 -10.078125 C 10.015625 -9.421875 10.40625 -8.492188 10.40625 -7.296875 C 10.40625 -6.410156 10.207031 -5.660156 9.8125 -5.046875 C 9.414062 -4.429688 8.847656 -3.984375 8.109375 -3.703125 L 10.59375 0 Z M 3.328125 -5.015625 L 5.953125 -5.015625 C 7.742188 -5.015625 8.640625 -5.753906 8.640625 -7.234375 C 8.640625 -8.671875 7.742188 -9.390625 5.953125 -9.390625 L 3.328125 -9.390625 Z M 3.328125 -5.015625 "/></g></g></g><g fill="#ffffff" fill-opacity="1"><g transform="translate(87.828899, 16.034805)"><g><path d="M 8.609375 -2.5 L 3.015625 -2.5 L 1.953125 0 L 0.015625 0 L 4.90625 -11.0625 L 6.8125 -11.0625 L 11.65625 0 L 9.65625 0 Z M 7.890625 -4.15625 L 5.796875 -9.078125 L 3.71875 -4.15625 Z M 7.890625 -4.15625 "/></g></g></g><g fill="#ffffff" fill-opacity="1"><g transform="translate(101.078058, 16.034805)"><g><path d="M 11.046875 0 L 9.21875 0 L 3.328125 -7.9375 L 3.328125 0 L 1.453125 0 L 1.453125 -11.0625 L 3.28125 -11.0625 L 9.21875 -3.109375 L 9.21875 -11.0625 L 11.046875 -11.0625 Z M 11.046875 0 "/></g></g></g><g fill="#ffffff" fill-opacity="1"><g transform="translate(115.180855, 16.034805)"><g><path d="M 9.015625 -9.390625 L 5.5 -9.390625 L 5.5 0 L 3.640625 0 L 3.640625 -9.390625 L 0.140625 -9.390625 L 0.140625 -11.0625 L 9.015625 -11.0625 Z M 9.015625 -9.390625 "/></g></g></g><g fill="#ffffff" fill-opacity="1"><g transform="translate(125.916446, 16.034805)"><g/></g></g><g fill="#ffffff" fill-opacity="1"><g transform="translate(131.577465, 16.034805)"><g><path d="M 9.4375 0.296875 L 7.71875 -1.390625 C 6.6875 -0.410156 5.570312 0.078125 4.375 0.078125 C 3.382812 0.078125 2.554688 -0.210938 1.890625 -0.796875 C 1.234375 -1.390625 0.90625 -2.128906 0.90625 -3.015625 C 0.90625 -3.734375 1.113281 -4.320312 1.53125 -4.78125 C 1.957031 -5.25 2.539062 -5.6875 3.28125 -6.09375 C 2.582031 -7.039062 2.234375 -7.894531 2.234375 -8.65625 C 2.234375 -9.382812 2.5 -9.976562 3.03125 -10.4375 C 3.5625 -10.90625 4.253906 -11.140625 5.109375 -11.140625 C 5.929688 -11.140625 6.601562 -10.921875 7.125 -10.484375 C 7.644531 -10.054688 7.90625 -9.503906 7.90625 -8.828125 C 7.90625 -8.460938 7.832031 -8.128906 7.6875 -7.828125 C 7.550781 -7.523438 7.335938 -7.25 7.046875 -7 C 6.765625 -6.75 6.488281 -6.539062 6.21875 -6.375 C 5.957031 -6.21875 5.625 -6.023438 5.21875 -5.796875 C 5.75 -5.203125 6.523438 -4.40625 7.546875 -3.40625 C 7.921875 -3.96875 8.25 -4.628906 8.53125 -5.390625 L 9.71875 -4.5 C 9.375 -3.664062 8.992188 -2.96875 8.578125 -2.40625 L 10.375 -0.640625 Z M 3.671875 -8.671875 C 3.671875 -8.109375 3.941406 -7.453125 4.484375 -6.703125 C 5.128906 -7.035156 5.617188 -7.359375 5.953125 -7.671875 C 6.296875 -7.984375 6.46875 -8.363281 6.46875 -8.8125 C 6.46875 -9.175781 6.34375 -9.46875 6.09375 -9.6875 C 5.851562 -9.90625 5.53125 -10.015625 5.125 -10.015625 C 4.6875 -10.015625 4.332031 -9.882812 4.0625 -9.625 C 3.800781 -9.375 3.671875 -9.054688 3.671875 -8.671875 Z M 4.4375 -1.296875 C 5.21875 -1.296875 5.976562 -1.65625 6.71875 -2.375 C 5.46875 -3.625 4.570312 -4.554688 4.03125 -5.171875 C 3.507812 -4.878906 3.109375 -4.578125 2.828125 -4.265625 C 2.546875 -3.953125 2.40625 -3.582031 2.40625 -3.15625 C 2.40625 -2.613281 2.597656 -2.164062 2.984375 -1.8125 C 3.378906 -1.46875 3.863281 -1.296875 4.4375 -1.296875 Z M 4.4375 -1.296875 "/></g></g></g><g fill="#ffffff" fill-opacity="1"><g transform="translate(143.64098, 16.034805)"><g/></g></g><g fill="#ffffff" fill-opacity="1"><g transform="translate(149.302015, 16.034805)"><g><path d="M 6.359375 -11.109375 C 7.140625 -11.109375 7.898438 -10.957031 8.640625 -10.65625 C 9.378906 -10.363281 10.019531 -9.945312 10.5625 -9.40625 L 9.46875 -8.046875 C 9.070312 -8.484375 8.597656 -8.828125 8.046875 -9.078125 C 7.492188 -9.328125 6.941406 -9.453125 6.390625 -9.453125 C 5.285156 -9.453125 4.347656 -9.070312 3.578125 -8.3125 C 2.816406 -7.5625 2.4375 -6.644531 2.4375 -5.5625 C 2.4375 -4.46875 2.816406 -3.539062 3.578125 -2.78125 C 4.347656 -2.03125 5.285156 -1.65625 6.390625 -1.65625 C 7.535156 -1.65625 8.5625 -2.09375 9.46875 -2.96875 L 10.578125 -1.734375 C 10.003906 -1.179688 9.335938 -0.738281 8.578125 -0.40625 C 7.828125 -0.0820312 7.066406 0.078125 6.296875 0.078125 C 4.671875 0.078125 3.300781 -0.457031 2.1875 -1.53125 C 1.082031 -2.613281 0.53125 -3.953125 0.53125 -5.546875 C 0.53125 -7.117188 1.09375 -8.4375 2.21875 -9.5 C 3.34375 -10.570312 4.722656 -11.109375 6.359375 -11.109375 Z M 6.359375 -11.109375 "/></g></g></g><g fill="#ffffff" fill-opacity="1"><g transform="translate(161.902996, 16.034805)"><g><path d="M 8.609375 -2.5 L 3.015625 -2.5 L 1.953125 0 L 0.015625 0 L 4.90625 -11.0625 L 6.8125 -11.0625 L 11.65625 0 L 9.65625 0 Z M 7.890625 -4.15625 L 5.796875 -9.078125 L 3.71875 -4.15625 Z M 7.890625 -4.15625 "/></g></g></g><g fill="#ffffff" fill-opacity="1"><g transform="translate(175.152126, 16.034805)"><g><path d="M 8.875 -9.390625 L 3.328125 -9.390625 L 3.328125 -6.203125 L 8.34375 -6.203125 L 8.34375 -4.53125 L 3.328125 -4.53125 L 3.328125 0 L 1.453125 0 L 1.453125 -11.0625 L 8.890625 -11.0625 Z M 8.875 -9.390625 "/></g></g></g><g fill="#ffffff" fill-opacity="1"><g transform="translate(185.824479, 16.034805)"><g><path d="M 9.359375 -9.390625 L 3.328125 -9.390625 L 3.328125 -6.40625 L 8.734375 -6.40625 L 8.734375 -4.734375 L 3.328125 -4.734375 L 3.328125 -1.671875 L 9.546875 -1.671875 L 9.546875 0 L 1.453125 0 L 1.453125 -11.0625 L 9.359375 -11.0625 Z M 9.359375 -9.390625 "/></g></g></g></g></g></g></svg>